<svg width="18" height="18" viewBox="0 0 18 18" fill="none" xmlns="http://www.w3.org/2000/svg">
<g clip-path="url(#clip0)" filter="url(#filter0_dd)">
<path d="M13.862 2.52171C13.7927 2.43992 13.6933 2.39317 13.5891 2.39317H11.6576V3.41881C11.6576 3.89009 11.2535 4.27351 10.7567 4.27351C10.26 4.27351 9.85581 3.89009 9.85581 3.41881V2.39317H8.05401V3.41881C8.05401 3.89009 7.64987 4.27351 7.15311 4.27351C6.65635 4.27351 6.25221 3.89009 6.25221 3.41881V2.39317H4.32077C4.21653 2.39317 4.11716 2.43992 4.04779 2.52171C3.97834 2.60351 3.94545 2.71257 3.95734 2.82146L4.60554 8.78462C4.61761 9.45692 5.14167 10 5.78419 10H12.1257C12.7682 10 13.2922 9.45693 13.3044 8.78453L13.9526 2.82137C13.9644 2.71257 13.9315 2.60351 13.862 2.52171Z" fill="#231F20"/>
<path d="M7.15309 3.76068C7.35182 3.76068 7.51345 3.60735 7.51345 3.4188V1.53846C7.51345 1.01051 8.07462 0.683761 8.59453 0.683761H9.49543C10.0426 0.683761 10.3963 1.01923 10.3963 1.53846V3.4188C10.3963 3.60735 10.558 3.76068 10.7567 3.76068C10.9553 3.76068 11.1171 3.60735 11.1171 3.4188V1.53846C11.1171 0.647009 10.4351 0 9.49543 0H8.59453C7.60101 0 6.79272 0.690171 6.79272 1.53846V3.4188C6.79272 3.60735 6.95435 3.76068 7.15309 3.76068Z" fill="#231F20"/>
</g>
<defs>
<filter id="filter0_dd" x="0" y="0" width="18" height="18" filterUnits="userSpaceOnUse" color-interpolation-filters="sRGB">
<feFlood flood-opacity="0" result="BackgroundImageFix"/>
<feColorMatrix in="SourceAlpha" type="matrix" values="0 0 0 0 0 0 0 0 0 0 0 0 0 0 0 0 0 0 127 0"/>
<feOffset dy="4"/>
<feGaussianBlur stdDeviation="2"/>
<feColorMatrix type="matrix" values="0 0 0 0 0 0 0 0 0 0 0 0 0 0 0 0 0 0 0.25 0"/>
<feBlend mode="normal" in2="BackgroundImageFix" result="effect1_dropShadow"/>
<feColorMatrix in="SourceAlpha" type="matrix" values="0 0 0 0 0 0 0 0 0 0 0 0 0 0 0 0 0 0 127 0"/>
<feOffset dy="4"/>
<feGaussianBlur stdDeviation="2"/>
<feColorMatrix type="matrix" values="0 0 0 0 0 0 0 0 0 0 0 0 0 0 0 0 0 0 0.25 0"/>
<feBlend mode="normal" in2="effect1_dropShadow" result="effect2_dropShadow"/>
<feBlend mode="normal" in="SourceGraphic" in2="effect2_dropShadow" result="shape"/>
</filter>
<clipPath id="clip0">
<rect width="10" height="10" fill="white" transform="translate(4)"/>
</clipPath>
</defs>
</svg>
